<?xml version="1.0" encoding="UTF-8" standalone="no"?>
<svg
   xmlns:dc="http://purl.org/dc/elements/1.1/"
   xmlns:cc="http://creativecommons.org/ns#"
   xmlns:rdf="http://www.w3.org/1999/02/22-rdf-syntax-ns#"
   xmlns:svg="http://www.w3.org/2000/svg"
   xmlns="http://www.w3.org/2000/svg"
   viewBox="0 0 478.94558 157.9252"
   height="157.9252"
   width="478.94559"
   xml:space="preserve"
   id="svg4601"
   version="1.1"><metadata
     id="metadata4607"><rdf:RDF><cc:Work
         rdf:about=""><dc:format>image/svg+xml</dc:format><dc:type
           rdf:resource="http://purl.org/dc/dcmitype/StillImage" /><dc:title></dc:title></cc:Work></rdf:RDF></metadata><defs
     id="defs4605"><clipPath
       id="clipPath4617"
       clipPathUnits="userSpaceOnUse"><path
         id="path4615"
         d="M 0,118.092 H 359.209 V 0 H 0 Z" /></clipPath><linearGradient
       id="linearGradient4653"
       spreadMethod="pad"
       gradientTransform="matrix(-54.666664,36,36,54.666664,342.45877,33.56292)"
       gradientUnits="userSpaceOnUse"
       y2="0"
       x2="1"
       y1="0"
       x1="0"><stop
         id="stop4649"
         offset="0"
         style="stop-opacity:1;stop-color:#2c48d1" /><stop
         id="stop4651"
         offset="1"
         style="stop-opacity:1;stop-color:#66beff" /></linearGradient><linearGradient
       id="linearGradient4673"
       spreadMethod="pad"
       gradientTransform="matrix(-54.666664,36,36,54.666664,349.46902,44.208153)"
       gradientUnits="userSpaceOnUse"
       y2="0"
       x2="1"
       y1="0"
       x1="0"><stop
         id="stop4669"
         offset="0"
         style="stop-opacity:1;stop-color:#2c48d1" /><stop
         id="stop4671"
         offset="1"
         style="stop-opacity:1;stop-color:#66beff" /></linearGradient><clipPath
       id="clipPath4683"
       clipPathUnits="userSpaceOnUse"><path
         id="path4681"
         d="M 0,118.092 H 359.209 V 0 H 0 Z" /></clipPath></defs><g
     transform="matrix(1.3333333,0,0,-1.3333333,2.6666666e-4,157.456)"
     id="g4609"><path
       d="m 48.9678,56.4411 c 0,9.466 -6.31,15.397 -15.018,15.397 -8.709,0 -15.019,-5.931 -15.019,-15.397 0,-9.465 6.31,-15.397 15.019,-15.397 8.708,0 15.018,5.932 15.018,15.397 m 18.931,31.552 v -63.104 h -18.931 v 5.932 c -4.164,-4.796 -10.348,-7.698 -18.805,-7.698 -16.533,0 -30.163,14.513 -30.163,33.318 0,18.805 13.63,33.319 30.163,33.319 8.457,0 14.641,-2.903 18.805,-7.698 v 5.931 z"
       style="fill:#000000;fill-opacity:1;fill-rule:nonzero;stroke:none"
       id="path4621" /><path
       d="m 120.9253,56.4411 c 0,9.466 -6.31,15.397 -15.018,15.397 -8.709,0 -15.019,-5.931 -15.019,-15.397 0,-9.465 6.31,-15.397 15.019,-15.397 8.708,0 15.018,5.932 15.018,15.397 m 18.932,0 c 0,-18.805 -13.631,-33.318 -30.164,-33.318 -8.456,0 -14.64,2.902 -18.805,7.698 v -31.173 h -18.931 v 88.345 h 18.931 v -5.931 c 4.165,4.795 10.349,7.698 18.805,7.698 16.533,0 30.164,-14.514 30.164,-33.319"
       style="fill:#000000;fill-opacity:1;fill-rule:nonzero;stroke:none"
       id="path4625" /><path
       d="m 189.8858,63.0041 c -2.019,7.32 -7.698,9.97 -13.377,9.97 -7.194,0 -11.99,-3.533 -13.757,-9.97 z m -11.61,-22.97 c 5.174,0 9.591,2.019 12.115,4.797 l 15.145,-8.709 c -6.183,-8.582 -15.523,-12.999 -27.513,-12.999 -21.581,0 -34.959,14.513 -34.959,33.318 0,18.805 13.63,33.319 33.571,33.319 18.426,0 32.057,-14.261 32.057,-33.319 0,-2.65 -0.253,-5.175 -0.758,-7.572 h -44.803 c 2.397,-6.563 8.203,-8.835 15.145,-8.835"
       style="fill:#000000;fill-opacity:1;fill-rule:nonzero;stroke:none"
       id="path4629" /><path
       d="m 250.7325,89.2556 v -21.456 c -7.826,1.263 -18.932,-1.893 -18.932,-14.388 v -28.522 h -18.93 v 63.103 h 18.93 v -11.232 c 2.525,8.456 10.981,12.495 18.932,12.495"
       style="fill:#000000;fill-opacity:1;fill-rule:nonzero;stroke:none"
       id="path4633" /><path
       id="path4635"
       style="fill:#000000;fill-opacity:1;fill-rule:nonzero;stroke:none"
       d="m 255.238,89.256 h 19.31 V 24.889 h -19.31 z m -1.931,17.251 c 0,6.307 5.278,11.585 11.587,11.585 6.306,0 11.585,-5.278 11.585,-11.585 0,-6.309 -5.279,-11.587 -11.585,-11.587 -6.309,0 -11.587,5.278 -11.587,11.587" /><path
       id="path4655"
       style="fill:url(#linearGradient4653);stroke:none"
       d="m 279.401,56.441 c 0,-18.805 14.892,-33.318 33.444,-33.318 v 0 18.426 c -8.202,0 -14.513,5.932 -14.513,14.892 v 0 c 0,8.961 6.311,14.893 14.513,14.893 v 0 18.426 c -18.552,0 -33.444,-14.514 -33.444,-33.319" /><path
       id="path4675"
       style="fill:url(#linearGradient4673);stroke:none"
       d="m 325.765,71.334 c 8.202,0 14.513,-5.932 14.513,-14.893 v 0 c 0,-8.96 -6.311,-14.892 -14.513,-14.892 v 0 -18.426 c 18.553,0 33.444,14.513 33.444,33.318 v 0 c 0,18.805 -14.891,33.319 -33.444,33.319 v 0 z" /><path
       d="m 107.2915,3.697 c 0,-2.313 -2.032,-4.007 -5.052,-4.007 -2.822,0 -4.685,1.326 -5.363,3.133 l 1.214,0.705 c 0.508,-1.524 2.033,-2.484 4.149,-2.484 1.976,0 3.641,0.876 3.641,2.653 0,3.839 -8.552,1.638 -8.552,6.718 0,2.229 1.92,4.008 4.798,4.008 2.286,0 4.037,-1.102 4.798,-2.823 l -1.185,-0.677 c -0.593,1.467 -2.06,2.145 -3.613,2.145 -1.834,0 -3.387,-0.96 -3.387,-2.653 0,-3.782 8.552,-1.553 8.552,-6.718"
       style="fill:#bcbcbc;fill-opacity:1;fill-rule:nonzero;stroke:none"
       id="path4687" /><path
       d="m 122.7007,7.0554 c 0,3.359 -2.597,6.013 -5.955,6.013 -3.359,0 -5.983,-2.654 -5.983,-6.013 0,-3.358 2.624,-6.012 5.983,-6.012 3.358,0 5.955,2.654 5.955,6.012 m -13.378,0 c 0,4.178 3.302,7.367 7.423,7.367 4.092,0 7.395,-3.189 7.395,-7.367 0,-4.177 -3.303,-7.365 -7.395,-7.365 -4.121,0 -7.423,3.188 -7.423,7.365"
       style="fill:#bcbcbc;fill-opacity:1;fill-rule:nonzero;stroke:none"
       id="path4691" /><path
       d="m 129.4165,14.8737 v -0.763 h 4.205 v -1.383 h -4.205 V -3e-4 h -1.439 v 12.728 h -2.428 v 1.383 h 2.428 v 0.763 c 0,3.472 1.947,5.476 5.644,5.193 v -1.354 c -2.878,0.226 -4.205,-1.102 -4.205,-3.839"
       style="fill:#bcbcbc;fill-opacity:1;fill-rule:nonzero;stroke:none"
       id="path4695" /><path
       d="m 139.2652,12.7282 v -9.172 c 0,-2.483 1.327,-2.54 4.205,-2.286 V -8e-4 c -3.697,-0.563 -5.644,0.34 -5.644,3.557 v 9.172 h -3.105 v 1.383 h 3.105 v 3.529 l 1.439,0.423 v -3.952 h 4.205 v -1.383 z"
       style="fill:#bcbcbc;fill-opacity:1;fill-rule:nonzero;stroke:none"
       id="path4699" /><path
       d="M 165.4839,14.111 161.0249,0 h -1.553 L 155.5489,12.024 151.6259,0 h -1.552 l -4.46,14.111 h 1.496 l 3.754,-12.277 3.952,12.277 h 1.467 l 3.951,-12.277 3.754,12.277 z"
       style="fill:#bcbcbc;fill-opacity:1;fill-rule:nonzero;stroke:none"
       id="path4703" /><path
       d="m 180.4405,7.0554 c 0,3.359 -2.597,6.013 -5.955,6.013 -3.359,0 -5.983,-2.654 -5.983,-6.013 0,-3.358 2.624,-6.012 5.983,-6.012 3.358,0 5.955,2.654 5.955,6.012 m 1.439,7.056 V -6e-4 h -1.439 v 3.19 c -1.186,-2.116 -3.358,-3.499 -6.068,-3.499 -4.008,0 -7.31,3.188 -7.31,7.365 0,4.178 3.302,7.367 7.31,7.367 2.71,0 4.882,-1.383 6.068,-3.5 v 3.189 z"
       style="fill:#bcbcbc;fill-opacity:1;fill-rule:nonzero;stroke:none"
       id="path4707" /><path
       d="m 192.3497,14.3102 v -1.355 c -2.427,0 -4.713,-1.497 -4.713,-5.11 V -8e-4 h -1.412 v 14.112 h 1.412 v -2.766 c 0.959,2.23 2.794,2.965 4.713,2.965"
       style="fill:#bcbcbc;fill-opacity:1;fill-rule:nonzero;stroke:none"
       id="path4711" /><path
       d="m 194.8614,7.7048 h 11.346 c -0.311,3.443 -2.738,5.363 -5.504,5.363 -3.218,0 -5.561,-2.23 -5.842,-5.363 m 12.813,-0.705 c 0,-0.227 -0.028,-0.451 -0.028,-0.678 h -12.785 c 0.338,-3.189 2.765,-5.278 5.982,-5.278 2.315,0 4.065,1.073 4.883,2.569 l 1.242,-0.734 c -1.158,-1.919 -3.358,-3.189 -6.153,-3.189 -4.347,0 -7.423,3.104 -7.423,7.366 0,4.149 2.992,7.367 7.311,7.367 4.29,0 6.971,-3.557 6.971,-7.423"
       style="fill:#bcbcbc;fill-opacity:1;fill-rule:nonzero;stroke:none"
       id="path4715" /></g></svg>