<?xml version="1.0" encoding="UTF-8" standalone="no"?>
<!DOCTYPE svg PUBLIC "-//W3C//DTD SVG 1.1//EN" "http://www.w3.org/Graphics/SVG/1.1/DTD/svg11.dtd">
<!-- Generated by graphviz version 2.38.0 (20140413.2041)
 -->
<!-- Title: AstropyCoordinateTransformGraph Pages: 1 -->
<svg width="327pt" height="207pt" viewBox="0.00 0.00 327.37 207.28" xmlns="http://www.w3.org/2000/svg" xmlns:xlink="http://www.w3.org/1999/xlink">
<g id="graph0" class="graph" transform="scale(1 1) rotate(0) translate(4 203.279)">
<title>AstropyCoordinateTransformGraph</title>
<polygon fill="white" stroke="none" points="-4,4 -4,-203.279 323.371,-203.279 323.371,4 -4,4"/>
<!-- HeliographicStonyhurst -->
<g id="node1" class="node"><title>HeliographicStonyhurst</title>
<ellipse fill="none" stroke="black" cx="163.267" cy="-178.066" rx="88.2768" ry="21.4286"/>
<text text-anchor="middle" x="163.267" y="-181.066" font-family="Helvetica Neue, Helvetica, Arial, sans-serif" font-size="10.00">HeliographicStonyhurst</text>
<text text-anchor="middle" x="163.267" y="-170.066" font-family="Helvetica Neue, Helvetica, Arial, sans-serif" font-size="10.00">`heliographic_stonyhurst`</text>
</g>
<!-- HeliographicCarrington -->
<g id="node2" class="node"><title>HeliographicCarrington</title>
<ellipse fill="none" stroke="black" cx="86.267" cy="-99.6396" rx="86.0347" ry="21.4286"/>
<text text-anchor="middle" x="86.267" y="-102.64" font-family="Helvetica Neue, Helvetica, Arial, sans-serif" font-size="10.00">HeliographicCarrington</text>
<text text-anchor="middle" x="86.267" y="-91.6396" font-family="Helvetica Neue, Helvetica, Arial, sans-serif" font-size="10.00">`heliographic_carrington`</text>
</g>
<!-- HeliographicStonyhurst&#45;&gt;HeliographicCarrington -->
<g id="edge1" class="edge"><title>HeliographicStonyhurst-&gt;HeliographicCarrington</title>
<path fill="none" stroke="black" d="M137.449,-157.384C127.728,-148.52 116.854,-137.901 107.579,-128.258"/>
<polygon fill="black" stroke="black" points="109.943,-125.663 100.536,-120.787 104.849,-130.464 109.943,-125.663"/>
</g>
<!-- Heliocentric -->
<g id="node3" class="node"><title>Heliocentric</title>
<ellipse fill="none" stroke="black" cx="241.267" cy="-99.6396" rx="50.8235" ry="21.4286"/>
<text text-anchor="middle" x="241.267" y="-102.64" font-family="Helvetica Neue, Helvetica, Arial, sans-serif" font-size="10.00">Heliocentric</text>
<text text-anchor="middle" x="241.267" y="-91.6396" font-family="Helvetica Neue, Helvetica, Arial, sans-serif" font-size="10.00">`heliocentric`</text>
</g>
<!-- HeliographicStonyhurst&#45;&gt;Heliocentric -->
<g id="edge2" class="edge"><title>HeliographicStonyhurst-&gt;Heliocentric</title>
<path fill="none" stroke="black" d="M177.737,-156.986C186.799,-147.284 198.661,-135.551 209.731,-125.31"/>
<polygon fill="black" stroke="black" points="212.177,-127.817 217.223,-118.501 207.469,-122.636 212.177,-127.817"/>
</g>
<!-- HeliographicCarrington&#45;&gt;HeliographicStonyhurst -->
<g id="edge5" class="edge"><title>HeliographicCarrington-&gt;HeliographicStonyhurst</title>
<path fill="none" stroke="black" d="M111.796,-120.058C121.589,-128.974 132.586,-139.707 141.952,-149.444"/>
<polygon fill="black" stroke="black" points="139.654,-152.109 149.059,-156.986 144.748,-147.308 139.654,-152.109"/>
</g>
<!-- Heliocentric&#45;&gt;HeliographicStonyhurst -->
<g id="edge7" class="edge"><title>Heliocentric-&gt;HeliographicStonyhurst</title>
<path fill="none" stroke="black" d="M227.23,-120.255C218.691,-129.428 207.561,-140.491 196.941,-150.409"/>
<polygon fill="black" stroke="black" points="194.342,-148.043 189.342,-157.384 199.076,-153.2 194.342,-148.043"/>
</g>
<!-- Helioprojective -->
<g id="node4" class="node"><title>Helioprojective</title>
<ellipse fill="none" stroke="black" cx="241.267" cy="-21.2132" rx="60.2083" ry="21.4286"/>
<text text-anchor="middle" x="241.267" y="-24.2132" font-family="Helvetica Neue, Helvetica, Arial, sans-serif" font-size="10.00">Helioprojective</text>
<text text-anchor="middle" x="241.267" y="-13.2132" font-family="Helvetica Neue, Helvetica, Arial, sans-serif" font-size="10.00">`helioprojective`</text>
</g>
<!-- Heliocentric&#45;&gt;Helioprojective -->
<g id="edge6" class="edge"><title>Heliocentric-&gt;Helioprojective</title>
<path fill="none" stroke="black" d="M235.244,-78.5595C234.558,-70.6361 234.357,-61.3586 234.643,-52.6449"/>
<polygon fill="black" stroke="black" points="238.151,-52.6096 235.232,-42.4246 231.162,-52.2064 238.151,-52.6096"/>
</g>
<!-- Helioprojective&#45;&gt;Heliocentric -->
<g id="edge4" class="edge"><title>Helioprojective-&gt;Heliocentric</title>
<path fill="none" stroke="black" d="M247.302,-42.4246C247.982,-50.3629 248.177,-59.6446 247.886,-68.352"/>
<polygon fill="black" stroke="black" points="244.379,-68.3724 247.29,-78.5595 251.367,-68.7805 244.379,-68.3724"/>
</g>
<!-- Helioprojective&#45;&gt;Helioprojective -->
<g id="edge3" class="edge"><title>Helioprojective-&gt;Helioprojective</title>
<path fill="none" stroke="black" d="M285.428,-35.7097C303.799,-36.7094 319.371,-31.8773 319.371,-21.2132 319.371,-12.632 309.288,-7.82702 295.777,-6.79836"/>
<polygon fill="black" stroke="black" points="295.455,-3.29581 285.428,-6.71674 295.4,-10.2956 295.455,-3.29581"/>
</g>
</g>
</svg>