<?xml version="1.0" encoding="UTF-8" standalone="no"?>
<!-- Created with Inkscape (http://www.inkscape.org/) -->

<svg
   xmlns:dc="http://purl.org/dc/elements/1.1/"
   xmlns:cc="http://creativecommons.org/ns#"
   xmlns:rdf="http://www.w3.org/1999/02/22-rdf-syntax-ns#"
   xmlns:svg="http://www.w3.org/2000/svg"
   xmlns="http://www.w3.org/2000/svg"
   xmlns:sodipodi="http://sodipodi.sourceforge.net/DTD/sodipodi-0.dtd"
   xmlns:inkscape="http://www.inkscape.org/namespaces/inkscape"
   id="svg6408"
   version="1.1"
   inkscape:version="0.92.1 r"
   xml:space="preserve"
   width="702.58301"
   height="281.40546"
   viewBox="0 0 721.40218 263.81762"
   sodipodi:docname="sunpy_logo.svg"><metadata
     id="metadata6414"><rdf:RDF><cc:Work
         rdf:about=""><dc:format>image/svg+xml</dc:format><dc:type
           rdf:resource="http://purl.org/dc/dcmitype/StillImage" /><dc:title /></cc:Work></rdf:RDF></metadata><defs
     id="defs6412"><clipPath
       clipPathUnits="userSpaceOnUse"
       id="clipPath6422"><path
         d="m 96.377,140.225 -5.519,-2.453 c -4.102,-2.059 -15.917,-11.28 -15.917,-11.28 v 0 C 73.06,124.673 67.46,118.167 63.812,111.039 v 0 C 60.439,104.45 58.931,97.209 58.884,95.481 v 0 c 0,0 0.689,-7.888 0.995,-9.174 v 0 c 0.284,-0.744 2.278,-6.832 3.504,-8.993 v 0 l 2.672,-3.996 c 1.666,-2.133 3.676,-4.176 6.087,-6.112 v 0 l 3.026,-2.229 c 1.345,-0.906 9.288,-4.904 11.071,-5.569 v 0 l 5.48,-1.701 c 7.242,-1.779 13.955,-1.579 20.325,-0.094 v 0 c 0.743,0.284 1.509,0.49 2.296,0.614 v 0 c 1.371,0.519 9.575,3.383 9.575,3.383 v 0 c 3.763,1.485 7.41,3.41 10.677,6.749 v 0 c 0.304,0.525 0.607,1.051 0.912,1.576 v 0 c 3.046,4.873 -3.483,8.645 -8.293,9.161 v 0 c -4.095,0.438 -7.248,-1.628 -10.976,-3.039 v 0 C 110.369,73.839 104.211,72.945 97.22,73.946 v 0 C 87.018,75.407 77.485,81.875 75.207,90.714 v 0 c -0.285,0.743 -0.489,1.508 -0.615,2.296 v 0 c -0.8,4.399 -0.7,9.038 2,14.374 v 0 c 0.452,1.249 1.596,3.229 2.453,4.244 v 0 c 5.551,8.168 13.18,11.724 20.532,13.691 v 0 c 7.375,1.972 15.825,2.31 24.776,-2.19 v 0 c 0.368,0.157 0.951,-0.49 1.405,-0.649 v 0 c 0.242,-0.14 0.485,-0.28 0.728,-0.421 v 0 c 0.365,-0.312 1.217,-0.495 1.263,-0.892 v 0 c 2.452,-1.088 2.432,-2.835 3.122,-4.393 v 0 c 0.251,-0.617 0.422,-1.254 0.512,-1.913 v 0 c 1.889,-5.722 -1.508,-12.683 -6.546,-16.922 v 0 c -4.942,-4.153 -10.827,-7.91 -16.843,-5.633 v 0 c -0.404,-0.035 -1.526,0.614 -1.698,0.982 v 0 c -3.98,3.035 -5.354,6.768 -4.409,11.122 v 0 c 3.534,-1.139 4.004,-5.806 7.73,-7.057 v 0 c 3.004,-1.009 5.731,0.948 7.958,3.974 v 0 c 0.304,0.525 0.609,1.05 0.912,1.576 v 0 c 3.15,6.138 0.671,9.115 -4.237,13.099 v 0 c -0.768,0.443 -1.538,0.887 -2.304,1.331 v 0 c -9.881,3.466 -17.341,4.085 -23.472,-6.465 v 0 c -0.537,-0.929 -1.075,-1.859 -1.612,-2.789 v 0 C 82.388,101.411 85.597,96.47 88.953,91.828 v 0 c 2.096,-2.904 4.637,-6.576 8.381,-8.727 v 0 c 7.684,-4.41 16.175,-2.358 22.182,-0.527 v 0 c 3.868,1.18 7.884,2.81 11.545,5.211 v 0 l 3.617,2.76 c 1.322,1.171 2.565,2.473 3.692,3.94 v 0 c 1.516,1.975 2.674,4.04 3.547,6.142 v 0 l 1.383,4.3 c 0.985,4.228 0.957,8.48 0.3,12.386 v 0 l -1.459,4.916 c -1.926,4.548 -5.808,8.572 -11.492,12.114 v 0 l -3.596,2.268 c -0.586,0.339 -1.174,0.679 -1.76,1.017 v 0 c -0.613,-0.023 -1.438,0.778 -2.132,1.071 v 0 c -2.822,1.484 -5.501,2.503 -8.076,3.136 v 0 l -4.359,0.725 c -0.791,0.068 -1.573,0.101 -2.348,0.101 v 0 c -4.151,0 -8.088,-0.942 -12.001,-2.436"
         id="path6424"
         inkscape:connector-curvature="0" /></clipPath><clipPath
       clipPathUnits="userSpaceOnUse"
       id="clipPath3655"><path
         d="m 330.321,694.55 -20.026,-8.899 c -14.884,-7.471 -57.746,-40.923 -57.746,-40.923 v 0 c -6.827,-6.599 -27.142,-30.204 -40.38,-56.065 v 0 c -12.238,-23.909 -17.707,-50.179 -17.877,-56.446 v 0 c 0,0 2.497,-28.617 3.608,-33.285 v 0 c 1.033,-2.698 8.261,-24.785 12.712,-32.629 v 0 l 9.695,-14.493 c 6.042,-7.741 13.336,-15.155 22.086,-22.176 v 0 l 10.978,-8.085 c 4.876,-3.286 33.696,-17.794 40.163,-20.204 v 0 l 19.885,-6.175 c 26.271,-6.452 50.626,-5.726 73.738,-0.343 v 0 c 2.696,1.034 5.478,1.779 8.33,2.231 v 0 c 4.978,1.876 34.74,12.271 34.74,12.271 v 0 c 13.653,5.392 26.884,12.373 38.735,24.488 v 0 c 1.105,1.904 2.205,3.815 3.309,5.717 v 0 c 11.052,17.681 -12.633,31.366 -30.084,33.237 v 0 c -14.86,1.588 -26.298,-5.901 -39.825,-11.022 v 0 c -21.279,-8.047 -43.623,-11.293 -68.985,-7.661 v 0 c -37.012,5.299 -71.602,28.766 -79.867,60.832 v 0 c -1.029,2.7 -1.774,5.475 -2.228,8.332 v 0 c -2.904,15.962 -2.539,32.795 7.252,52.149 v 0 c 1.643,4.528 5.794,11.712 8.902,15.395 v 0 c 20.137,29.637 47.818,42.538 74.488,49.673 v 0 c 26.754,7.155 57.417,8.381 89.894,-7.946 v 0 c 1.334,0.573 3.446,-1.773 5.093,-2.355 v 0 c 0.877,-0.508 1.762,-1.014 2.643,-1.526 v 0 c 1.323,-1.135 4.411,-1.797 4.582,-3.237 v 0 c 8.898,-3.947 8.826,-10.285 11.326,-15.937 v 0 c 0.911,-2.239 1.534,-4.549 1.859,-6.942 v 0 c 6.852,-20.762 -5.473,-46.014 -23.749,-61.395 v 0 c -17.929,-15.068 -39.281,-28.695 -61.107,-20.435 v 0 c -1.466,-0.127 -5.534,2.228 -6.159,3.562 v 0 c -14.439,11.013 -19.425,24.557 -15.995,40.352 v 0 c 12.82,-4.131 14.526,-21.061 28.046,-25.602 v 0 c 10.897,-3.657 20.788,3.44 28.871,14.419 v 0 c 1.106,1.905 2.205,3.813 3.306,5.719 v 0 c 11.43,22.272 2.438,33.069 -15.369,47.522 v 0 c -2.784,1.61 -5.578,3.223 -8.36,4.831 v 0 c -35.844,12.574 -62.911,14.821 -85.157,-23.455 v 0 c -1.946,-3.372 -3.9,-6.746 -5.849,-10.12 v 0 c -16.231,-24.19 -4.586,-42.119 7.589,-58.962 v 0 c 7.605,-10.532 16.822,-23.861 30.408,-31.661 v 0 c 27.876,-15.994 58.681,-8.559 80.473,-1.909 v 0 c 14.035,4.278 28.607,10.192 41.889,18.905 v 0 l 13.121,10.013 c 4.797,4.247 9.307,8.971 13.393,14.292 v 0 c 5.503,7.165 9.705,14.658 12.874,22.288 v 0 l 5.011,15.599 c 3.572,15.334 3.471,30.764 1.086,44.936 v 0 l -5.293,17.833 c -6.984,16.497 -21.073,31.099 -41.689,43.95 v 0 l -13.047,8.229 c -2.129,1.23 -4.26,2.461 -6.386,3.69 v 0 c -2.228,-0.083 -5.221,2.822 -7.734,3.886 v 0 c -10.241,5.384 -19.963,9.08 -29.302,11.375 v 0 l -15.816,2.634 c -2.865,0.246 -5.699,0.365 -8.505,0.365 v 0 c -15.064,0 -29.354,-3.414 -43.55,-8.837"
         id="path3657"
         inkscape:connector-curvature="0" /></clipPath><clipPath
       clipPathUnits="userSpaceOnUse"
       id="clipPath3721"><path
         d="M 0,900 H 700 V 0 H 0 Z"
         id="path3723"
         inkscape:connector-curvature="0" /></clipPath></defs><sodipodi:namedview
     pagecolor="#ffffff"
     bordercolor="#666666"
     borderopacity="1"
     objecttolerance="10"
     gridtolerance="10"
     guidetolerance="10"
     inkscape:pageopacity="0"
     inkscape:pageshadow="2"
     inkscape:window-width="1918"
     inkscape:window-height="2122"
     id="namedview6410"
     showgrid="false"
     inkscape:zoom="1.4429726"
     inkscape:cx="332.2729"
     inkscape:cy="172.15995"
     inkscape:window-x="0"
     inkscape:window-y="36"
     inkscape:window-maximized="0"
     inkscape:current-layer="g6416"
     fit-margin-top="0"
     fit-margin-left="0"
     fit-margin-right="0"
     fit-margin-bottom="0" /><g
     id="g6416"
     inkscape:groupmode="layer"
     inkscape:label="sunpy logo diecut"
     transform="matrix(1.25,0,0,-1.25,1.1640328,296.73273)"><g
       id="g4672"
       transform="matrix(0.90875365,0,0,0.90875365,22.766259,45.038349)"><g
         id="g4690"><text
           transform="scale(1,-1)"
           style="font-variant:normal;font-weight:bold;font-stretch:normal;font-size:140px;line-height:0%;font-family:'Source Sans Pro';-inkscape-font-specification:SourceSansPro-Bold;writing-mode:lr-tb;fill:#f47900;fill-opacity:1;fill-rule:nonzero;stroke:none"
           id="text6536"
           x="246.56323"
           y="-113.976">sun</text>
<text
           transform="scale(1,-1)"
           style="font-variant:normal;font-weight:normal;font-stretch:normal;font-size:140px;line-height:0%;font-family:'Source Sans Pro';-inkscape-font-specification:SourceSansPro-Regular;writing-mode:lr-tb;fill:#444444;fill-opacity:1;fill-rule:nonzero;stroke:none"
           id="text6540"
           x="468.18323"
           y="-113.976">py</text>
</g></g><text
       xml:space="preserve"
       style="font-style:normal;font-weight:normal;font-size:29.85904884px;line-height:18.66190529px;font-family:sans-serif;letter-spacing:0px;word-spacing:0px;fill:#000000;fill-opacity:1;stroke:none;stroke-width:0.74647623"
       x="411.99472"
       y="-86.572853"
       id="text4556"
       transform="scale(1,-1)"><tspan
         sodipodi:role="line"
         id="tspan4554"
         x="414.96896"
         y="-86.572853"
         style="font-style:normal;font-variant:normal;font-weight:normal;font-stretch:normal;line-height:29.85904884px;font-family:'Source Sans Pro';-inkscape-font-specification:'Source Sans Pro';text-align:center;text-anchor:middle;fill:#444444;fill-opacity:1;stroke-width:0.74647623">A Community Python </tspan><tspan
         sodipodi:role="line"
         x="411.99472"
         y="-56.713806"
         style="font-style:normal;font-variant:normal;font-weight:normal;font-stretch:normal;line-height:29.85904884px;font-family:'Source Sans Pro';-inkscape-font-specification:'Source Sans Pro';text-align:center;text-anchor:middle;fill:#444444;fill-opacity:1;stroke-width:0.74647623"
         id="tspan4558">Library for Solar Physics</tspan></text>
<g
       transform="matrix(0.38043116,0,0,0.38043116,-18.196446,-76.857577)"
       id="g5506"><g
         id="g3651"><g
           clip-path="url(#clipPath3655)"
           id="g3653"><path
             inkscape:connector-curvature="0"
             id="path3659"
             style="fill:#fed20b;fill-opacity:1;fill-rule:nonzero;stroke:none"
             d="M 187.985,707.823 H 510.492 V 384.592 H 187.985 Z" /><g
             style="fill:#fe7900;fill-opacity:1"
             transform="translate(327.1396,704.3284)"
             id="g3661"><path
               inkscape:connector-curvature="0"
               id="path3663"
               style="fill:#fe7900;fill-opacity:1;fill-rule:nonzero;stroke:none"
               d="m 0,0 c -9.553,-3.648 -19.087,-7.78 -28.655,-12.289 -2.72,-1.282 -5.449,-2.713 -8.172,-4.081 L 21.538,-61.2 Z" /></g><g
             style="fill:#fe7900;fill-opacity:1"
             transform="translate(215.4777,602.6791)"
             id="g3665"><path
               inkscape:connector-curvature="0"
               id="path3667"
               style="fill:#fe7900;fill-opacity:1;fill-rule:nonzero;stroke:none"
               d="m 0,0 c -5.635,-9.133 -10.665,-18.522 -14.88,-28.04 l 57.934,0.197 z" /></g><g
             style="fill:#fe7900;fill-opacity:1"
             transform="translate(205.4881,474.8035)"
             id="g3669"><path
               inkscape:connector-curvature="0"
               id="path3671"
               style="fill:#fe7900;fill-opacity:1;fill-rule:nonzero;stroke:none"
               d="M 0,0 C 5.993,-10.568 12.857,-20.9 20.715,-30.971 L 55.964,26.64 Z" /></g><g
             style="fill:#fe7900;fill-opacity:1"
             transform="translate(364.7315,386.0267)"
             id="g3673"><path
               inkscape:connector-curvature="0"
               id="path3675"
               style="fill:#fe7900;fill-opacity:1;fill-rule:nonzero;stroke:none"
               d="M 0,0 C 13.22,1.416 25.855,3.492 37.911,6.229 L 8.811,66.982 Z" /></g><g
             style="fill:#fe7900;fill-opacity:1"
             transform="translate(452.985,487.9121)"
             id="g3677"><path
               inkscape:connector-curvature="0"
               id="path3679"
               style="fill:#fe7900;fill-opacity:1;fill-rule:nonzero;stroke:none"
               d="m 0,0 c 8.737,5.733 17.177,12.122 25.188,19.224 l -45.303,32.51 z" /></g><g
             style="fill:#fe7900;fill-opacity:1"
             transform="translate(501.489,616.3011)"
             id="g3681"><path
               inkscape:connector-curvature="0"
               id="path3683"
               style="fill:#fe7900;fill-opacity:1;fill-rule:nonzero;stroke:none"
               d="m 0,0 c -0.132,0.791 -0.235,1.594 -0.378,2.383 -1.542,3.796 -2.593,7.726 -3.148,11.786 -1.381,5.49 -3.228,10.851 -5.458,16.115 L -56.536,5.516 Z" /></g><g
             style="fill:#fe7900;fill-opacity:1"
             transform="translate(455.5196,673.7922)"
             id="g3685"><path
               inkscape:connector-curvature="0"
               id="path3687"
               style="fill:#fe7900;fill-opacity:1;fill-rule:nonzero;stroke:none"
               d="m 0,0 c -1.562,0.972 -3.079,1.957 -4.675,2.924 -3.942,3.097 -11.824,5.141 -13.188,8.93 -3.753,2.172 -7.512,4.343 -11.275,6.517 l -3.399,-62.855 z" /></g><g
             style="fill:#fe7900;fill-opacity:1"
             transform="translate(272.2613,662.0034)"
             id="g3689"><path
               inkscape:connector-curvature="0"
               id="path3691"
               style="fill:#fe7900;fill-opacity:1;fill-rule:nonzero;stroke:none"
               d="m 0,0 c -8.58,-6.955 -16.823,-14.162 -24.535,-21.569 -0.382,-0.373 -0.77,-0.771 -1.152,-1.142 l 54.326,-28.547 z" /></g><g
             style="fill:#fe7900;fill-opacity:1"
             transform="translate(195.1753,544.2224)"
             id="g3693"><path
               inkscape:connector-curvature="0"
               id="path3695"
               style="fill:#fe7900;fill-opacity:1;fill-rule:nonzero;stroke:none"
               d="M 0,0 C -0.281,-10.322 0.282,-20.458 1.593,-30.44 L 51.396,-7.862 Z" /></g><g
             style="fill:#fe7900;fill-opacity:1"
             transform="translate(261.4511,414.3745)"
             id="g3697"><path
               inkscape:connector-curvature="0"
               id="path3699"
               style="fill:#fe7900;fill-opacity:1;fill-rule:nonzero;stroke:none"
               d="M 0,0 C 10.769,-6.08 22.118,-11.893 34.122,-17.414 L 49.975,46.608 Z" /></g><g
             style="fill:#fe7900;fill-opacity:1"
             transform="translate(456.5343,583.2733)"
             id="g3701"><path
               inkscape:connector-curvature="0"
               id="path3703"
               style="fill:#fe7900;fill-opacity:1;fill-rule:nonzero;stroke:none"
               d="m 0,0 44.44,-29.174 c 3.98,9.578 7.059,19.27 9.327,28.987 z" /></g><g
             transform="translate(406.6292,698.5815)"
             id="g3705"><path
               inkscape:connector-curvature="0"
               id="path3707"
               style="fill:#fe7900;fill-opacity:1;fill-rule:nonzero;stroke:none"
               d="m 0,0 c -10.555,2.597 -20.868,4.287 -30.975,5.154 l 7.306,-54.79 z" /></g><g
             style="fill:#fe7900;fill-opacity:1"
             transform="translate(397.3771,474.7584)"
             id="g3709"><path
               inkscape:connector-curvature="0"
               id="path3711"
               style="fill:#fe7900;fill-opacity:1;fill-rule:nonzero;stroke:none"
               d="M 0,0 C 9.318,1.577 18.629,3.823 27.835,6.807 L 2.067,50.166 Z" /></g><g
             style="fill:#fe7900;fill-opacity:1"
             transform="translate(306.8412,501.8764)"
             id="g3713"><path
               inkscape:connector-curvature="0"
               id="path3715"
               style="fill:#fe7900;fill-opacity:1;fill-rule:nonzero;stroke:none"
               d="m 0,0 c 8.572,-8.786 17.842,-17.069 27.826,-24.697 l 27.271,59.53 z" /></g></g></g><g
         id="g3717"><g
           clip-path="url(#clipPath3721)"
           id="g3719"><g
             transform="translate(610.4482,581.2419)"
             id="g3725"><path
               inkscape:connector-curvature="0"
               id="path3727"
               style="fill:#fed20b;fill-opacity:1;fill-rule:nonzero;stroke:none"
               d="m 0,0 c 17.995,1.885 44.48,6.925 43.697,-12.193 v -6.605 c -1.289,-12.557 -14.481,-14.146 -25.91,-17.276 -21.749,-5.97 -47.764,-11.584 -71.139,-13.211 h -5.078 c -10.373,2.246 -27.586,7.749 -26.934,19.814 0.446,8.153 12.684,13.063 21.849,16.263 C -44.186,-6.454 -21.956,-2.286 0,0" /></g><g
             transform="translate(630.0081,405.9229)"
             id="g3729"><path
               inkscape:connector-curvature="0"
               id="path3731"
               style="fill:#fed20b;fill-opacity:1;fill-rule:nonzero;stroke:none"
               d="m 0,0 c 5.865,-6.796 1.188,-26.573 -7.111,-28.451 -5.293,-1.209 -12.47,2.516 -16.765,4.57 -25.089,11.939 -44.653,23.121 -68.594,38.109 -7.622,4.763 -20.918,10.988 -22.362,19.814 -1.693,10.353 5.508,19.735 14.739,20.833 10.054,1.208 23.286,-3.766 30.995,-7.622 9.124,-4.573 16.683,-9.994 23.371,-14.736 C -28.62,20.384 -14.562,11.219 -1.014,1.016 -0.508,0.636 -0.403,0.466 0,0" /></g><g
             transform="translate(572.9283,741.454)"
             id="g3733"><path
               inkscape:connector-curvature="0"
               id="path3735"
               style="fill:#fed20b;fill-opacity:1;fill-rule:nonzero;stroke:none"
               d="M 0,0 C 9.866,0.065 19.692,-9.316 18.294,-19.816 17.506,-25.68 10.542,-31.46 5.082,-36.583 -11.494,-52.122 -32.075,-69.968 -56.398,-74.691 h -6.098 c -7.813,1.652 -14.841,4.784 -15.749,12.195 -1.123,9.085 9.631,17.215 14.229,21.34 12.721,11.432 26.507,19.457 41.154,28.962 C -16.365,-7.961 -8.382,-0.043 0,0" /></g><g
             transform="translate(516.9543,301.4407)"
             id="g3737"><path
               inkscape:connector-curvature="0"
               id="path3739"
               style="fill:#fed20b;fill-opacity:1;fill-rule:nonzero;stroke:none"
               d="m 0,0 c 2.373,-5.274 5.737,-11.666 5.588,-16.26 -0.296,-8.958 -10.012,-17.278 -19.812,-16.766 -8.027,0.423 -10.567,5.545 -16.261,10.158 -1.82,2.246 -3.857,4.274 -6.098,6.101 -20.452,21.89 -36.376,48.311 -45.221,81.802 v 6.606 c 0.399,6.753 7.792,15.138 15.244,16.261 12.868,1.925 22.355,-8.109 28.451,-15.745 C -22.061,52.057 -11.263,25.064 0,0" /></g><g
             transform="translate(402.6306,852.3464)"
             id="g3741"><path
               inkscape:connector-curvature="0"
               id="path3743"
               style="fill:#fed20b;fill-opacity:1;fill-rule:nonzero;stroke:none"
               d="m 0,0 c 12.173,-2.394 18.295,-10.84 17.277,-26.421 -1.164,-0.699 -0.189,-3.536 -0.508,-5.082 -1.859,-23.521 -5.039,-58.749 -14.226,-78.756 -3.452,-7.515 -10.102,-17.32 -21.849,-15.243 -9.696,1.713 -12.999,12.022 -13.716,23.88 v 14.735 c 0.231,15.625 2.984,35.821 7.114,50.811 4.148,15.009 8.468,31.079 21.333,36.076 z" /></g><g
             transform="translate(378.7538,305.3443)"
             id="g3745"><path
               inkscape:connector-curvature="0"
               id="path3747"
               style="fill:#fed20b;fill-opacity:1;fill-rule:nonzero;stroke:none"
               d="M 0,0 C -1.169,-1.209 -0.195,-4.554 -0.51,-6.608 -2.818,-28.86 -4.214,-52.019 -20.326,-60.467 h -4.575 c -12.766,6.88 -13.929,25.366 -15.747,43.19 -0.339,2.709 0.678,6.774 -0.51,8.638 v 4.065 c 1.188,2.541 0.171,7.282 0.51,10.668 0.678,11.75 1.164,21.996 3.556,33.537 1.717,8.301 4.872,23.078 13.211,23.882 C -13.002,64.572 -6.796,49.394 -4.069,39.631 -0.531,27.013 -0.149,14.438 0,0" /></g><g
             transform="translate(273.5722,372.921)"
             id="g3749"><path
               inkscape:connector-curvature="0"
               id="path3751"
               style="fill:#fed20b;fill-opacity:1;fill-rule:nonzero;stroke:none"
               d="m 0,0 v -9.148 c -4.677,-28.005 -18.969,-57.605 -37.599,-77.225 -5.25,-5.549 -14.607,-16.472 -24.897,-12.197 -3.514,1.457 -4.616,5.761 -5.588,10.675 v 6.096 c 4.954,34 19.032,58.875 36.075,80.787 2.414,1.986 4.614,4.19 6.605,6.6 C -19.138,13.995 0.425,15.052 0,0" /></g><g
             transform="translate(275.0622,734.7545)"
             id="g3753"><path
               inkscape:connector-curvature="0"
               id="path3755"
               style="fill:#fed20b;fill-opacity:1;fill-rule:nonzero;stroke:none"
               d="m 0,0 c 2.311,-9.547 7.24,-24.686 -4.572,-26.931 h -5.083 c -6.689,0.595 -9.547,5.02 -13.719,8.131 -2.329,2.752 -4.869,5.292 -7.621,7.622 C -51.678,7.876 -75.264,52.888 -55.383,90.445 -45.011,88.92 -38.914,79.328 -33.03,71.136 -18.82,51.318 -6.858,28.37 0,0" /></g><g
             transform="translate(205.7032,648.3133)"
             id="g3757"><path
               inkscape:connector-curvature="0"
               id="path3759"
               style="fill:#fed20b;fill-opacity:1;fill-rule:nonzero;stroke:none"
               d="m 0,0 c 2.138,-9.843 -4.319,-16.091 -12.702,-16.766 -15.708,-1.272 -34.023,9.421 -44.714,15.75 -13.655,8.087 -25.066,16.555 -35.058,25.406 -1.82,2.244 -3.855,4.275 -6.098,6.095 -5.631,8.11 -15.521,14.629 -13.718,28.455 12.51,2.267 24.473,-2.689 35.059,-6.605 20.599,-7.601 39.209,-16.747 56.91,-29.471 C -12.322,17.127 -2.137,9.911 0,0" /></g><g
             transform="translate(182.622,442.5301)"
             id="g3761"><path
               inkscape:connector-curvature="0"
               id="path3763"
               style="fill:#fed20b;fill-opacity:1;fill-rule:nonzero;stroke:none"
               d="m 0,0 c 1.628,-8.086 -5.693,-16.999 -10.162,-21.848 -10.16,-11.008 -23.563,-19.386 -37.092,-25.911 -8.044,-3.894 -36.137,-12.811 -38.109,1.522 -1.162,8.387 6.226,11.687 9.147,17.278 1.907,1.484 3.599,3.175 5.082,5.078 9.167,7.35 18.016,14.799 29.978,21.34 C -35.483,0.551 -3.261,16.238 0,0" /></g><g
             transform="translate(168.9019,552.2807)"
             id="g3765"><path
               inkscape:connector-curvature="0"
               id="path3767"
               style="fill:#fed20b;fill-opacity:1;fill-rule:nonzero;stroke:none"
               d="m 0,0 c 1.102,-18.883 -31.988,-21.381 -49.792,-22.864 h -18.292 c -22.674,2.392 -46.366,3.769 -55.385,19.818 v 3.555 c 6.245,16.958 27.375,19.034 48.27,21.34 2.056,0.319 5.401,-0.657 6.608,0.509 h 7.622 c 1.376,-1.167 4.89,-0.19 7.11,-0.509 11.793,-0.998 22.21,-1.629 33.027,-5.081 C -12.703,14.185 -0.549,9.253 0,0" /></g><g
             transform="translate(405.4024,556.9478)"
             id="g3769"><path
               inkscape:connector-curvature="0"
               id="path3771"
               style="fill:#fed20b;fill-opacity:1;fill-rule:nonzero;stroke:none"
               d="m 0,0 c 4.62,0.271 7.951,1.182 12.528,-0.867 2.131,-0.954 4.285,-0.954 6.559,-0.729 4.941,0.484 8.494,3.348 12.329,6.164 1.547,1.139 -1.37,1.27 -1.897,1.218 C 27.602,5.604 25.597,5.011 24.036,3.864 22.111,2.451 21.573,1.28 18.752,2.543 17.411,3.145 16.002,3.858 14.521,3.972 10.807,4.257 7.273,3.355 3.587,3.14 1.529,3.021 -5.391,-0.317 0,0" /></g><g
             transform="translate(422.4237,555.8321)"
             id="g3773"><path
               inkscape:connector-curvature="0"
               id="path3775"
               style="fill:#fed20b;fill-opacity:1;fill-rule:nonzero;stroke:none"
               d="m 0,0 c 2.585,-3.287 6.268,-5.474 10.511,-5.271 1.765,0.084 4.13,0.723 5.481,1.935 1.405,1.267 -1.255,1.306 -1.917,1.273 1.122,0.054 -0.263,0.172 -0.603,0.306 -0.71,0.278 -1.372,0.682 -2.016,1.086 C 10.251,0.086 9.059,1.066 8.178,2.191 7.301,3.309 4.881,2.613 3.763,2.316 3.457,2.233 -0.687,0.873 0,0" /></g></g></g></g></g></svg>